<?xml version="1.0" standalone="no"?><!DOCTYPE svg PUBLIC "-//W3C//DTD SVG 1.1//EN" "http://www.w3.org/Graphics/SVG/1.1/DTD/svg11.dtd"><svg t="1702389265861" class="icon" viewBox="0 0 1024 1024" version="1.1" xmlns="http://www.w3.org/2000/svg" p-id="2273" xmlns:xlink="http://www.w3.org/1999/xlink" width="200" height="200"><path d="M510.698824 0.00876A389.350281 389.350281 0 0 0 121.348542 389.359042c0 182.670174 280.332202 522.702753 365.989265 621.987074a32.445857 32.445857 0 0 0 48.993244 0c85.98152-97.986487 366.313723-438.019066 366.313722-621.987074A389.350281 389.350281 0 0 0 510.698824 0.00876z m0 940.929847C356.581004 756.321682 186.240256 511.679922 186.240256 389.359042a324.458568 324.458568 0 0 1 651.512804 0c0 122.32088-170.016289 366.96264-327.054236 551.579565z" fill="" p-id="2274"></path><path d="M510.698824 235.241222A155.415654 155.415654 0 1 0 667.412312 389.359042 155.415654 155.415654 0 0 0 510.698824 235.241222z m0 245.939594A90.52394 90.52394 0 1 1 602.520598 389.359042 90.52394 90.52394 0 0 1 510.698824 481.180816z" fill="" p-id="2275"></path></svg>