<?xml version="1.0" standalone="no"?><!DOCTYPE svg PUBLIC "-//W3C//DTD SVG 1.1//EN" "http://www.w3.org/Graphics/SVG/1.1/DTD/svg11.dtd"><svg t="1702389110939" class="icon" viewBox="0 0 1024 1024" version="1.1" xmlns="http://www.w3.org/2000/svg" p-id="2505" xmlns:xlink="http://www.w3.org/1999/xlink" width="200" height="200"><path d="M811.9296 605.7984a25.6 25.6 0 0 0 39.424-32.6656 343.7568 343.7568 0 0 0-34.048-35.84 25.6 25.6 0 0 0-34.3552 37.9392 294.7072 294.7072 0 0 1 28.9792 30.5664z" fill="#FF64C8" p-id="2506"></path><path d="M903.5264 659.456a25.6 25.6 0 1 0-47.2576 19.712 288.768 288.768 0 0 1 22.3232 111.872v24.576a76.8 76.8 0 0 1-76.8 76.8H222.208a76.8 76.8 0 0 1-76.8-76.8v-24.576A290.3552 290.3552 0 0 1 374.6304 506.88a241.3056 241.3056 0 0 0 113.2544 42.0352h1.792c3.1744 0.3072 6.3488 0.512 9.5232 0.7168h2.7648c3.7888 0 7.6288 0.3072 11.4688 0.3072 3.7888 0 7.6288 0 11.4176-0.3072h2.7648c3.2256 0 6.4-0.4096 9.5232-0.7168h1.792a241.408 241.408 0 0 0 112.64-41.5744 289.0752 289.0752 0 0 1 83.5584 33.024 25.6 25.6 0 1 0 26.0096-44.0832 337.3056 337.3056 0 0 0-64.3584-29.3376 243.9168 243.9168 0 1 0-367.36-1.024 341.4528 341.4528 0 0 0-235.2128 325.12v24.576a128 128 0 0 0 128 128h579.584a128 128 0 0 0 128-128v-24.576a340.0704 340.0704 0 0 0-26.2656-131.584zM513.4336 113.5104A192.7168 192.7168 0 0 1 542.72 496.64h-0.4096c-2.7648 0.4096-5.5296 0.768-8.3456 1.0752h-2.048c-2.3552 0-4.7104 0.4096-7.0656 0.512h-23.04c-2.4064 0-4.7616-0.3072-7.168-0.512h-1.9968c-2.7648-0.3072-5.5808-0.6656-8.3456-1.0752h-0.4096a192.7168 192.7168 0 0 1 29.44-383.1808z" fill="#585266" p-id="2507"></path><path d="M667.904 818.5344H354.0992a25.6 25.6 0 0 1 0-51.2h313.8048a25.6 25.6 0 0 1 0 51.2z" fill="#585266" p-id="2508"></path></svg>